<svg width="36" height="36" viewBox="0 0 36 36" fill="none" xmlns="http://www.w3.org/2000/svg">
<path d="M0 8C0 3.58172 3.58172 0 8 0H28C32.4183 0 36 3.58172 36 8V28C36 32.4183 32.4183 36 28 36H8C3.58172 36 0 32.4183 0 28V8Z" fill="#14C679"/>
<g clip-path="url(#clip0_151_1562)">
<mask id="mask0_151_1562" style="mask-type:luminance" maskUnits="userSpaceOnUse" x="8" y="8" width="20" height="20">
<path d="M28 8H8V28H28V8Z" fill="white"/>
</mask>
<g mask="url(#mask0_151_1562)">
<path d="M19.1664 9.66699H12.9997C12.5576 9.66699 12.1337 9.84258 11.8212 10.1551C11.5086 10.4677 11.333 10.8916 11.333 11.3337V24.667C11.333 25.109 11.5086 25.5329 11.8212 25.8455C12.1337 26.158 12.5576 26.3336 12.9997 26.3336H22.9997C23.4417 26.3336 23.8656 26.158 24.1782 25.8455C24.4908 25.5329 24.6664 25.109 24.6664 24.667V18.5003" stroke="white" stroke-width="1.66667" stroke-linecap="round" stroke-linejoin="round"/>
<path d="M9.6665 13H12.9998" stroke="white" stroke-width="1.66667" stroke-linecap="round" stroke-linejoin="round"/>
<path d="M9.6665 16.334H12.9998" stroke="white" stroke-width="1.66667" stroke-linecap="round" stroke-linejoin="round"/>
<path d="M9.6665 19.667H12.9998" stroke="white" stroke-width="1.66667" stroke-linecap="round" stroke-linejoin="round"/>
<path d="M9.6665 23H12.9998" stroke="white" stroke-width="1.66667" stroke-linecap="round" stroke-linejoin="round"/>
<path d="M25.8146 12.6888C26.1466 12.3568 26.3331 11.9066 26.3331 11.4371C26.3331 10.9677 26.1466 10.5174 25.8146 10.1855C25.4826 9.85349 25.0324 9.66699 24.5629 9.66699C24.0935 9.66699 23.6432 9.85349 23.3113 10.1855L19.1363 14.3621C18.9381 14.5601 18.7931 14.8049 18.7146 15.0738L18.0171 17.4655C17.9962 17.5372 17.995 17.6132 18.0135 17.6855C18.032 17.7579 18.0697 17.8239 18.1225 17.8767C18.1753 17.9296 18.2413 17.9672 18.3137 17.9858C18.3861 18.0043 18.4621 18.0031 18.5338 17.9821L20.9254 17.2846C21.1943 17.2061 21.4391 17.0611 21.6371 16.863L25.8146 12.6888Z" stroke="white" stroke-width="1.66667" stroke-linecap="round" stroke-linejoin="round"/>
</g>
</g>
<defs>
<clipPath id="clip0_151_1562">
<rect width="20" height="20" fill="white" transform="translate(8 8)"/>
</clipPath>
</defs>
</svg>
